<?xml version="1.0" encoding="utf-8"?>
<!-- Generator: Adobe Illustrator 28.3.0, SVG Export Plug-In . SVG Version: 6.00 Build 0)  -->
<svg version="1.1" id="Layer_1" xmlns="http://www.w3.org/2000/svg" xmlns:xlink="http://www.w3.org/1999/xlink" x="0px" y="0px"
	 viewBox="0 0 439.52 75.68" style="enable-background:new 0 0 439.52 75.68;" xml:space="preserve">
<style type="text/css">
	.st0{fill:#312E6A;}
</style>
<g>
	<g>
		<path class="st0" d="M0,18.31l27.04-0.1c6.26-0.02,11.82,1.13,16.68,3.45c4.86,2.32,8.63,5.63,11.31,9.93
			c2.68,4.29,4.04,9.33,4.06,15.1c0.02,5.77-1.3,10.82-3.95,15.13c-2.65,4.31-6.4,7.65-11.24,10.01
			c-4.84,2.36-10.39,3.55-16.65,3.57l-27.04,0.1L0,18.31z M26.55,62.5c4.9-0.02,8.83-1.42,11.79-4.21
			c2.96-2.79,4.43-6.63,4.41-11.54c-0.02-4.9-1.52-8.74-4.5-11.5c-2.98-2.77-6.92-4.14-11.82-4.12l-10.21,0.04l0.12,31.37
			L26.55,62.5z"/>
		<path class="st0" d="M92.64,59.97L83.82,60l0.06,15.2L67.7,75.26l-0.21-57.19l26.14-0.1c5.17-0.02,9.67,0.82,13.49,2.52
			c3.82,1.7,6.77,4.14,8.85,7.32c2.08,3.18,3.13,6.92,3.15,11.22c0.02,4.14-0.94,7.75-2.86,10.84c-1.92,3.08-4.68,5.51-8.27,7.26
			l12.4,17.93l-17.32,0.06L92.64,59.97z M100.22,32.9c-1.69-1.46-4.2-2.19-7.52-2.18l-8.99,0.03l0.06,16.75l8.99-0.03
			c3.32-0.01,5.83-0.74,7.51-2.19c1.68-1.45,2.52-3.51,2.51-6.18C102.77,36.43,101.92,34.36,100.22,32.9z"/>
		<path class="st0" d="M174.03,62.37l0.05,12.5l-45.92,0.17l-0.21-57.19l44.86-0.17l0.05,12.5l-28.84,0.11l0.04,9.64l25.41-0.09
			l0.04,12.09l-25.41,0.09l0.04,10.46L174.03,62.37z"/>
		<path class="st0" d="M237.26,17.44l0.21,57.19l-13.32,0.05L198.8,44.3l0.11,30.48l-15.85,0.06l-0.21-57.19l13.32-0.05l25.36,30.38
			l-0.11-30.48L237.26,17.44z"/>
		<path class="st0" d="M306.55,17.19l-24.3,57.28l-15.93,0.06l-24.64-57.1l17.48-0.06l15.66,37.2l15.71-37.32L306.55,17.19z"/>
		<path class="st0" d="M309.9,17.17l16.18-0.06l0.21,57.19l-16.18,0.06L309.9,17.17z M320.87,0.06L336.39,0l-15.31,12.48
			l-11.11,0.04L320.87,0.06z"/>
	</g>
	<path class="st0" d="M420.76,43.23c-0.74-0.97-1.41-2-2.25-2.88c-0.84-0.88-0.51-1.39,0.3-1.92c1.73-1.58,3.96-2.3,5.93-3.46
		c4.02-2.36,8.06-4.7,12.21-6.82c0.71-0.36,1.42-0.72,2.57-0.29C433.26,32.98,427.01,38.11,420.76,43.23z"/>
	<path class="st0" d="M416.06,35.27c-0.31,0.11-0.8,0.01-0.87,0.66c1.65,0.43,1.25,1.3,0.43,2.27c-0.24,0.28-0.42,0.61-0.63,0.92
		c1.42,0.57,2.46-0.95,3.82-0.7c4.8-1.86,9.01-4.84,13.5-7.28c1.61-0.88,3.43-1.49,4.65-3C429.99,30.52,423.02,32.89,416.06,35.27z"
		/>
	<path class="st0" d="M416.02,42.97"/>
	<path class="st0" d="M416.09,43.01c-0.06,0.03-0.13,0.06-0.19,0.09c0.08-0.08,0.11-0.13,0.11-0.13c-4.87,2.02-9.66,3.65-14.36,4.95
		l0,0c0,0-0.11,0.03-0.29,0.08c-0.29,0.08-0.57,0.15-0.86,0.23c-1.38,0.36-3.56,0.93-4.08,1.01l0.01-0.01
		c-0.75,0.17-1.5,0.34-2.25,0.49c-1.85,0.33-3.69,0.73-5.57,0.87c-0.85,0.16-1.72,0.26-2.57,0.41c-5.26,0.63-10.52,1.04-15.83,1.06
		c-5.98,0.03-11.91-0.51-17.84-1.2c-0.06-0.01-0.36-0.05-0.84-0.12c-0.12-0.04-0.25-0.07-0.37-0.09c-0.16-0.01-0.32-0.03-0.48-0.05
		c-0.31-0.05-0.66-0.11-1.05-0.17c-0.72-0.14-1.44-0.31-2.17-0.38c-4.54-0.83-11.43-2.29-17.29-4.37c-0.06-0.05-0.11-0.1-0.17-0.15
		c-0.64-0.21-1.29-0.43-1.93-0.64c-0.36-0.14-0.71-0.29-1.06-0.44c-0.01-0.04-0.03-0.08-0.04-0.12c-0.24-0.07-0.49-0.14-0.73-0.22
		c-0.45-0.21-0.89-0.42-1.31-0.63c-0.03-0.02-0.06-0.04-0.09-0.06c-0.35-0.02-0.72-0.17-1.09,0.08c-0.05-0.02-0.07-0.03-0.07-0.03
		c0.02,0.02,0.03,0.03,0.05,0.05c-0.01,0.01-0.02,0.01-0.03,0.02c0.04,0.03,0.08,0.05,0.12,0.08c6.5,6.84,19.49,9.86,19.7,9.9
		c0.81,0.55,1.21,1.46,1.54,2.69c2.26,8.45,7.43,14.43,15.68,17.58c4.62,1.76,9.45,2.16,14.33,1.76
		c10.46-0.87,18.21-5.8,22.61-15.53c1.05-2.31,1.53-4.79,2.16-7.22c0.5-0.12,4.38-1.86,4.38-1.86l0,0c4.35-1.66,7.7-4.16,9.7-5.92
		C414.75,44.5,415.49,43.87,416.09,43.01z M324.96,43.49l0.53,0.32C325.31,43.72,325.13,43.61,324.96,43.49z M373.09,65.56
		c-6.73,0.3-12.53-3.06-14.98-8.87c9.48,1.17,18.78,0.94,28.1-0.69C384.54,61.31,379,65.29,373.09,65.56z"/>
	<path class="st0" d="M408.58,37.87c0.04-0.03,0.07-0.05,0.07-0.05c-0.24,0.07-0.46,0.15-0.69,0.22c-1.74,0.47-6.2,1.63-8.04,1.75
		c-0.02-0.1-0.04-0.22-0.05-0.34c-1.59-14.02-11.87-23.5-25.96-24.04c-5.95-0.23-11.76,0.39-16.98,3.5
		c-4.49,2.67-7.72,6.31-9.91,10.71c0,0,0,0,0,0c-0.01,0.02-0.02,0.04-0.03,0.07c-0.13,0.27-0.26,0.54-0.39,0.81
		c-2.09,4.48-2.12,6.16-2.03,6.69c0,0,0,0.01,0,0.01c0,0.03-0.01,0.06-0.03,0.09c-0.01,0.02-0.03,0.04-0.05,0.04c0,0,0,0,0,0
		c-0.5,0.06-1.57-0.11-2.83-0.37c-0.28-0.09-0.57-0.16-0.87-0.19c-1.14-0.26-2.35-0.56-3.34-0.82c-0.7-0.23-1.41-0.45-2.11-0.68
		c-0.02,0.03-0.03,0.07-0.05,0.1c-0.05-0.01-0.08-0.02-0.08-0.02c0.02,0.01,0.04,0.03,0.07,0.04c-0.01,0.03-0.02,0.05-0.04,0.08
		c0.69,0.41,1.37,0.82,2.06,1.22c3.35,2.07,6.3,3.51,8.8,4.5c0.68,0.55,1.66,0.52,2.42,0.92c0.22,0.05,0.44,0.11,0.66,0.16
		c3.18,0.97,5.26,1.11,6.06,1.09c0.15,0.01,0.27,0,0.37-0.03l0,0c0.48-0.15,0.51-0.76,0.47-2.05c0.12-0.82,0.27-1.7,0.4-2.43
		c0.07-0.57,0.17-1.12,0.29-1.66c0-0.01,0-0.02,0-0.02c0,0,0,0,0,0c1.82-7.8,9.43-12.89,17.84-11.62
		c7.23,1.09,12.55,6.56,13.13,15.33c-0.06,0.41-0.11,0.84-0.14,1.25c0.04,0.69-0.01,1.39,0,2.08c0.02,0.74,0.2,1.28,0.7,1.5l-0.01,0
		c0.01,0.01,0.02,0.01,0.03,0.02c0.06,0.01,0.11,0.04,0.16,0.05c0.01,0,0.02,0,0.04,0c0.2,0.04,0.43,0.05,0.71,0.01
		c0.03-0.01,0.05-0.02,0.08-0.03c1.6-0.1,4.91-0.61,9.62-2.62c0.09-0.03,0.18-0.06,0.27-0.09c0.79-0.27,1.59-0.54,2.34-0.91
		c0,0,0,0,0,0c2.16-0.83,5.3-3.04,6.54-3.95c0.19-0.12,0.38-0.25,0.57-0.37C408.68,37.84,408.64,37.85,408.58,37.87z"/>
</g>
</svg>
